<?xml version="1.0" standalone="no"?>
<!DOCTYPE svg PUBLIC "-//W3C//DTD SVG 20010904//EN"
 "http://www.w3.org/TR/2001/REC-SVG-20010904/DTD/svg10.dtd">
<svg version="1.0" xmlns="http://www.w3.org/2000/svg"
 width="600.000000pt" height="600.000000pt" viewBox="0 0 600.000000 600.000000"
 preserveAspectRatio="xMidYMid meet">
<metadata>
Created by potrace 1.14, written by Peter Selinger 2001-2017
</metadata>
<g transform="translate(0.000000,600.000000) scale(0.100000,-0.100000)"
fill="#000000" stroke="none">
<path d="M669 5595 c-215 -54 -393 -240 -513 -537 -31 -77 -69 -196 -81 -253
-18 -80 -21 -99 -34 -175 -29 -166 -36 -270 -36 -535 0 -132 4 -269 9 -305 4
-36 9 -81 11 -100 3 -19 7 -46 10 -60 2 -14 7 -38 10 -55 23 -138 81 -311 146
-435 31 -61 177 -252 313 -410 11 -14 41 -50 66 -80 25 -30 47 -57 51 -60 14
-12 87 -129 106 -171 73 -157 95 -352 68 -586 -13 -118 -80 -268 -142 -324
-107 -94 -263 -119 -448 -70 -47 13 -124 5 -145 -14 -34 -31 -49 -102 -36
-175 3 -19 8 -57 11 -85 3 -27 8 -63 11 -80 3 -16 7 -46 8 -65 2 -19 7 -55 10
-80 5 -42 11 -110 21 -255 14 -187 18 -202 64 -243 47 -43 90 -54 206 -58 287
-7 526 133 721 425 52 76 130 226 154 291 6 19 16 44 21 55 20 46 70 222 84
296 3 13 9 47 15 75 6 28 10 55 9 60 -1 5 0 11 1 14 6 17 18 111 27 225 14
164 7 568 -11 675 -3 14 -7 46 -11 72 -3 26 -7 53 -10 60 -2 7 -6 29 -9 48 -3
19 -10 51 -16 70 -6 19 -13 46 -16 59 -17 82 -135 351 -154 351 -5 0 -11 8
-14 18 -4 9 -21 33 -39 53 -17 20 -50 58 -72 83 -22 26 -51 60 -65 75 -31 33
-147 163 -224 250 -70 80 -141 219 -162 321 -21 100 -21 304 0 395 2 6 6 28
11 50 37 183 161 256 303 178 41 -22 187 -126 202 -142 26 -30 96 -73 120 -73
61 -2 98 43 121 147 7 33 14 65 15 70 6 24 15 64 25 120 5 33 30 139 55 235
25 96 47 186 48 200 9 73 -108 217 -256 316 -74 49 -214 117 -268 130 -19 4
-42 9 -50 12 -44 11 -191 10 -241 -3z"/>
<path d="M2547 5574 c-10 -10 -234 -18 -539 -18 -343 -1 -347 -1 -377 -24 -54
-39 -53 -21 -36 -662 26 -979 26 -3187 1 -3229 -4 -6 -4 -11 1 -11 4 0 7 -26
5 -57 -2 -32 -4 -276 -5 -543 -2 -447 -1 -488 16 -517 25 -47 68 -66 131 -58
117 15 169 16 219 5 84 -18 177 -24 177 -11 0 6 6 11 13 11 6 0 21 13 32 28
19 26 20 41 18 337 -2 171 -5 453 -9 629 l-6 318 118 -6 c66 -4 137 -9 159
-11 22 -3 110 -7 196 -9 128 -4 167 -2 225 13 165 43 297 143 411 312 33 48
109 193 129 244 53 140 97 277 108 335 2 14 5 25 6 25 1 0 3 9 5 20 2 11 6 31
9 45 4 14 8 39 11 55 3 17 10 53 15 80 5 28 11 68 14 90 3 22 7 56 10 75 37
251 42 831 11 1110 -13 113 -22 176 -37 250 -6 30 -12 62 -13 70 -1 8 -5 29
-9 45 -4 17 -17 68 -28 115 -21 88 -68 231 -94 287 -8 17 -14 35 -14 40 0 19
-111 225 -158 294 -101 148 -221 249 -355 298 -64 23 -87 26 -214 27 -78 1
-144 0 -146 -2z m179 -884 c53 -30 100 -75 138 -135 34 -54 89 -175 97 -213 1
-4 5 -17 10 -30 5 -12 11 -33 14 -45 2 -12 9 -40 14 -62 25 -101 34 -162 47
-315 15 -162 8 -565 -11 -672 -11 -60 -13 -74 -20 -108 -3 -19 -7 -42 -9 -50
-13 -70 -62 -213 -93 -270 -48 -86 -88 -133 -148 -170 -39 -24 -46 -24 -220
-24 -189 0 -318 9 -344 24 -13 7 -16 44 -18 237 -4 374 -6 1249 -3 1531 4 302
-7 275 111 292 124 18 142 21 204 26 33 3 61 7 63 8 1 2 31 2 65 0 43 -2 77
-10 103 -24z"/>
<path d="M3807 5548 c-27 -13 -44 -32 -57 -61 -23 -52 -22 -240 6 -1582 3
-132 5 -247 5 -255 -1 -8 0 -33 0 -55 4 -112 0 -1343 -4 -1555 -3 -135 -9
-387 -13 -560 -3 -173 -7 -459 -8 -635 -1 -297 0 -322 18 -351 32 -53 67 -68
144 -58 69 9 161 9 291 1 68 -4 75 -3 103 22 16 14 34 46 42 71 14 48 14 39 1
1360 -3 377 -2 690 2 697 13 18 143 24 513 24 362 -1 496 -5 529 -16 14 -4 20
-13 17 -28 -2 -12 0 -34 5 -49 4 -15 4 -30 -1 -33 -5 -3 -5 -18 0 -34 4 -16 6
-31 4 -34 -5 -5 -16 -930 -18 -1512 -1 -346 1 -383 17 -412 27 -51 68 -67 146
-57 85 10 200 10 277 0 84 -11 129 10 156 72 19 42 19 62 13 515 -4 260 -8
540 -10 622 -16 685 -19 882 -18 1330 0 281 3 672 7 870 3 198 9 504 13 680 3
176 6 460 7 630 1 347 -1 360 -69 392 -31 15 -47 15 -142 4 -60 -6 -119 -9
-133 -6 -14 3 -57 8 -97 11 -85 7 -123 -9 -149 -64 -17 -36 -18 -156 -8 -852
11 -801 11 -1090 -1 -1100 -20 -17 -157 -23 -525 -23 -341 0 -520 5 -539 17
-10 7 -9 456 5 1106 3 184 7 448 8 586 l1 251 -28 36 c-35 47 -73 54 -194 37
-50 -7 -107 -10 -125 -6 -18 3 -58 8 -88 12 -30 3 -57 8 -60 9 -3 2 -22 -6
-43 -17z"/>
</g>
</svg>
